/* XPM */
static char * AppIcon_xpm[] = {
"32 32 352 2",
"  	c None",
". 	c #EEF0EC",
"+ 	c #E7E7E5",
"@ 	c #D6D6D2",
"# 	c #FFFFFF",
"$ 	c #D6D7D2",
"% 	c #F0F0ED",
"& 	c #F1F0F0",
"* 	c #7D7D7B",
"= 	c #7D7B7B",
"- 	c #D1D1CC",
"; 	c #FEFDFC",
"> 	c #A7A6A6",
", 	c #333333",
"' 	c #7A7A7A",
") 	c #EDECEB",
"! 	c #F2F1F0",
"~ 	c #ECECE9",
"{ 	c #B3B4AE",
"] 	c #ECECEA",
"^ 	c #B4B3B3",
"/ 	c #505050",
"( 	c #6C6C6B",
"_ 	c #D0CECD",
": 	c #E9E7E6",
"< 	c #A3A1A0",
"[ 	c #C1C0BF",
"} 	c #CCCCC9",
"| 	c #BDBEB8",
"1 	c #E3E3DF",
"2 	c #B4B3B2",
"3 	c #5E5E5D",
"4 	c #C0BFBE",
"5 	c #999998",
"6 	c #A0A09F",
"7 	c #B7B6B6",
"8 	c #ECEBEA",
"9 	c #F7F4F2",
"0 	c #C4C4BE",
"a 	c #E9E7E4",
"b 	c #EEEDEA",
"c 	c #FAF9F7",
"d 	c #A6A5A4",
"e 	c #5E5D5D",
"f 	c #B2B1B0",
"g 	c #F4F3F1",
"h 	c #B7B6B4",
"i 	c #A5A4A3",
"j 	c #F3F2F0",
"k 	c #C6C5C3",
"l 	c #C5C4C3",
"m 	c #908E8E",
"n 	c #9F9E9D",
"o 	c #EDECEA",
"p 	c #DCDCD7",
"q 	c #C3C1BE",
"r 	c #B6B6B2",
"s 	c #E7E5E3",
"t 	c #9F9E9B",
"u 	c #6A6A68",
"v 	c #888787",
"w 	c #F4F3F2",
"x 	c #BDBBBA",
"y 	c #FFFFFE",
"z 	c #CCCBCA",
"A 	c #E3E0DF",
"B 	c #979694",
"C 	c #9E9B9A",
"D 	c #B9B8B6",
"E 	c #C0C0BB",
"F 	c #CBCAC5",
"G 	c #D0CECC",
"H 	c #929190",
"I 	c #C0BEBB",
"J 	c #C4C1BF",
"K 	c #A7A6A5",
"L 	c #DAD9D7",
"M 	c #B6B4B3",
"N 	c #DCDAD9",
"O 	c #DDDCDC",
"P 	c #F1F0EE",
"Q 	c #BBB9B7",
"R 	c #969492",
"S 	c #949392",
"T 	c #AAA9A6",
"U 	c #D7D4D3",
"V 	c #E3E1DE",
"W 	c #D8D7D3",
"X 	c #C1C0BE",
"Y 	c #DCDAD7",
"Z 	c #A5A4A1",
"` 	c #868584",
" .	c #9B9998",
"..	c #BAB8B6",
"+.	c #C7C5C4",
"@.	c #AAA9A7",
"#.	c #ACABAA",
"$.	c #C9C7C6",
"%.	c #CAC9C7",
"&.	c #F4F2F0",
"*.	c #A3A09F",
"=.	c #A9A7A6",
"-.	c #939190",
";.	c #ADACAA",
">.	c #EBE7E5",
",.	c #CBCAC6",
"'.	c #BABAB4",
").	c #DCD9D7",
"!.	c #C6C6C1",
"~.	c #C4C3C0",
"{.	c #9D9A99",
"].	c #939291",
"^.	c #D3D0CD",
"/.	c #A09F9E",
"(.	c #B2B1AE",
"_.	c #D4D2D1",
":.	c #D1CECC",
"<.	c #CDCBC9",
"[.	c #91908E",
"}.	c #989794",
"|.	c #C3C0BE",
"1.	c #E1DFDC",
"2.	c #B4B4AE",
"3.	c #CACAC6",
"4.	c #E3E1DF",
"5.	c #9D9B9A",
"6.	c #B2B0AD",
"7.	c #AAA7A5",
"8.	c #CDCBC7",
"9.	c #A19F9E",
"0.	c #BDBAB9",
"a.	c #C1BFBD",
"b.	c #C7C5C3",
"c.	c #CDCAC7",
"d.	c #ADABA9",
"e.	c #91908D",
"f.	c #8A8785",
"g.	c #969391",
"h.	c #D8D3D0",
"i.	c #C4C0BB",
"j.	c #DEDCD8",
"k.	c #CACAC5",
"l.	c #E3E0DE",
"m.	c #9E9D9A",
"n.	c #ABAAA7",
"o.	c #B7B4B2",
"p.	c #AEACAB",
"q.	c #B4B2B0",
"r.	c #9F9D9A",
"s.	c #D6D2CE",
"t.	c #D1CDCA",
"u.	c #999794",
"v.	c #989693",
"w.	c #979492",
"x.	c #A6A4A0",
"y.	c #D2CDC9",
"z.	c #B3B2AC",
"A.	c #C0C0BA",
"B.	c #D3D2CE",
"C.	c #EBEAE6",
"D.	c #8E8D8C",
"E.	c #8D8C8B",
"F.	c #CECCCA",
"G.	c #E7E5E1",
"H.	c #9A9897",
"I.	c #DEDAD7",
"J.	c #C7C4C0",
"K.	c #C5C1BF",
"L.	c #EDE9E5",
"M.	c #BBB9B6",
"N.	c #999693",
"O.	c #989492",
"P.	c #83807E",
"Q.	c #B4B1AD",
"R.	c #CAC6C1",
"S.	c #A4A49E",
"T.	c #D3D2CD",
"U.	c #CDCCC7",
"V.	c #F9F8F6",
"W.	c #CBC9C7",
"X.	c #F6F3F1",
"Y.	c #C9C6C4",
"Z.	c #E9E5E1",
"`.	c #E0DDDA",
" +	c #888685",
".+	c #E0DDD9",
"++	c #ECE9E4",
"@+	c #858381",
"#+	c #8B8886",
"$+	c #A5A19F",
"%+	c #DFDAD6",
"&+	c #D4D0CC",
"*+	c #BDBAB4",
"=+	c #B1B2AB",
"-+	c #DAD8D4",
";+	c #ECEBE7",
">+	c #EAE7E6",
",+	c #D4D2CE",
"'+	c #DAD7D4",
")+	c #979693",
"!+	c #B1AEAB",
"~+	c #EDEAE6",
"{+	c #CDCAC6",
"]+	c #A4A19E",
"^+	c #A19E9B",
"/+	c #CDC9C5",
"(+	c #AEACA7",
"_+	c #CCCBC6",
":+	c #ADACAB",
"<+	c #D6D3D1",
"[+	c #F8F4F2",
"}+	c #CBC9C6",
"|+	c #989694",
"1+	c #888785",
"2+	c #B9B6B3",
"3+	c #EEEBE7",
"4+	c #8B8887",
"5+	c #84817F",
"6+	c #979491",
"7+	c #C5C0BD",
"8+	c #9E9F98",
"9+	c #E1DFDA",
"0+	c #E1E0DC",
"a+	c #C4C1C0",
"b+	c #B9B7B6",
"c+	c #B8B6B3",
"d+	c #F1EDEA",
"e+	c #B6B3B1",
"f+	c #ECEAE5",
"g+	c #F2EEEB",
"h+	c #C6C3C0",
"i+	c #E7E4E0",
"j+	c #E6E1DE",
"k+	c #A5A3A0",
"l+	c #9E9A98",
"m+	c #5A5958",
"n+	c #A19E9A",
"o+	c #B2B0AB",
"p+	c #D1D0CB",
"q+	c #F7F3F0",
"r+	c #D8D6D2",
"s+	c #B8B4B2",
"t+	c #E5E5E5",
"u+	c #797978",
"v+	c #D1CCC9",
"w+	c #A0A09A",
"x+	c #D7D6D1",
"y+	c #E1E0DD",
"z+	c #A6A5A3",
"A+	c #EAE6E4",
"B+	c #908D8B",
"C+	c #E9E4E0",
"D+	c #61605F",
"E+	c #ACACAC",
"F+	c #BBBBBB",
"G+	c #D4D4D4",
"H+	c #807E7B",
"I+	c #C4C0BD",
"J+	c #94948E",
"K+	c #D4D3CE",
"L+	c #DCDAD8",
"M+	c #878685",
"N+	c #DEDCD9",
"O+	c #D6D2D0",
"P+	c #83807F",
"Q+	c #B2AEAC",
"R+	c #EEEAE6",
"S+	c #D0CCC9",
"T+	c #7E7D7A",
"U+	c #CBCBCB",
"V+	c #7E7E7E",
"W+	c #C5C1BE",
"X+	c #B3B1AC",
"Y+	c #CCCCC7",
"Z+	c #E1E1DD",
"`+	c #FFFDF9",
" @	c #B3B1AE",
".@	c #E3E0DD",
"+@	c #BFBBB9",
"@@	c #878583",
"#@	c #BEBBB9",
"$@	c #8B8B8B",
"%@	c #838383",
"&@	c #676564",
"*@	c #DCD7D2",
"=@	c #9E9E98",
"-@	c #B4B6AE",
";@	c #F8F6F2",
">@	c #A7A5A4",
",@	c #9E9B99",
"'@	c #A4A19F",
")@	c #E1DED9",
"!@	c #DFDCD7",
"~@	c #50504E",
"{@	c #6D6C6A",
"]@	c #797774",
"^@	c #9D9B97",
"/@	c #CBCBC6",
"(@	c #A5A3A1",
"_@	c #8D8C8A",
":@	c #D4D2D0",
"<@	c #EAE6E3",
"[@	c #8A8786",
"}@	c #BFBDB9",
"|@	c #C1BEBB",
"1@	c #9F9B99",
"2@	c #5B5A59",
"3@	c #949490",
"4@	c #CDCDC9",
"5@	c #979493",
"6@	c #9D9B99",
"7@	c #9B9A98",
"8@	c #BEBAB9",
"9@	c #DEDAD8",
"0@	c #F2EDEA",
"a@	c #D7D3D0",
"b@	c #646361",
"c@	c #868583",
"d@	c #A5A49F",
"e@	c #B8B9B3",
"f@	c #F3F1EE",
"g@	c #F4F1ED",
"h@	c #6D6B6A",
"i@	c #ADACA7",
"j@	c #C1C3BD",
"k@	c #CCCBC9",
"l@	c #EEECEA",
"m@	c #FCF9F6",
"n@	c #F9F7F3",
"o@	c #666564",
"p@	c #A9A7A4",
"q@	c #AAAAA4",
"r@	c #A9AAA3",
"s@	c #FFFEFC",
"t@	c #F0EDEA",
"u@	c #838180",
"v@	c #8C8B88",
"w@	c #B9B8B3",
"x@	c #B6B6B0",
"y@	c #BBBAB8",
"z@	c #777674",
"A@	c #CCCBC7",
"B@	c #B3B3AD",
"C@	c #E4E3DF",
"D@	c #F7F6F3",
"E@	c #CAC7C6",
"F@	c #D2D1CD",
"G@	c #B6B7B1",
"H@	c #F8F7F6",
"I@	c #F3F2EE",
"J@	c #BDBDB8",
"K@	c #CBCBC5",
"                            . +                                 ",
"                        @ # # # $                               ",
"                      % # & * = #                               ",
"                  - # ; > , ' ) ! ~                             ",
"              { ] # ^ / ( _ : < [ # }                           ",
"        | $ 1 # 2 3 3 4 # _ 5 6 7 8 9                           ",
"    0 a b c d / e f g h i j k l m n o p                         ",
"  q r s t u v 4 w h x c y z A B B C D j E                       ",
"  F G r H I J K L M N O P l s Q R S T U V                       ",
"    W X Y Z `  ...+.@.#.$.%.l &.*.=.-.;.>.,.                    ",
"    '.).!.~.C {.].^./.i (._.l :.<.H [.}.|.1.2.                  ",
"      F 3.4.i 5.6.7.8.9.0.a.0.b.c.d.e.f.g.h.i.                  ",
"        j.k.l.m.n. .o.p.Z n.q.r.s.t.u.v.w.x.y.z.                ",
"        A.B.C.0.D.E.F.G.H.Q I.J.K.L.M.N.O.P.Q.R.S.              ",
"          T.U.V.W.X.Y.7.Z.`.m. +g..+++@+#+$+%+&+*+              ",
"          =+-+;+>+m.`  .,+'+}.)+w.!+~+h.s.{+]+^+/+(+            ",
"            _+_+y :+Z {.<+[+}+|+1+2+3+L.M.4+5+6+7+7+8+          ",
"              9+0+4.a+X.b+c+d+e+f+g+h+i+j+u.k+l+m+n+o+          ",
"              0 p+y L m.E. .,+q+r+k+ +s+~+I.5+6 t+u+v+w+        ",
"                x+y+y z+C S  .A+e+|+k+B+C+L.D+E+F+G+H+I+J+      ",
"                '.K+# L+M+5.N+O+d+z+P+B+Q+R+S+T+U+F+V+W+X+      ",
"                  Y+Z+y l.`+ @ ..@^.d.k+B++@~+@@#@$@%@&@*@=@    ",
"                  -@- # y B C (.b.;@>@e.,@'@)@!@/ ~@@@{@]@^@    ",
"                    /@V # L+W.(@_@:@<@e.[@1+}@R+|@1@2@^@3@      ",
"                      4@# y n 5@6@7@g+8@t 9@0@a@b@c@d@          ",
"                      e@V # f@z+D.S <+;@q+g@u.h@i@              ",
"                        j@# # k@a+l@m@n@|.o@p@q@                ",
"                        r@1 # y s@`+t@u@v@w@                    ",
"                          x@# # y y@z@A@B@                      ",
"                          r@C@D@S E@F@                          ",
"                            G@H@I@J@                            ",
"                              K@                                "};
